<?xml version="1.0" encoding="utf-8"?><svg xmlns="http://www.w3.org/2000/svg" xmlns:xlink="http://www.w3.org/1999/xlink" width="1536" height="706" preserveAspectRatio="xMidYMid" viewBox="0 0 1536 706" style="z-index:1;margin-right:-2px;display:block;background-repeat-y:initial;background-repeat-x:initial;background-color:rgb(241, 242, 243);animation-play-state:paused" ><g transform="" style="animation-play-state:paused" ><linearGradient id="lg-0.8040362555143372" x1="0" x2="1" y1="0" y2="0" style="animation-play-state:paused" ><stop stop-color="#abbdd8" offset="0" style="animation-play-state:paused" ></stop>

  
<stop stop-color="#689cc5" offset="1" style="animation-play-state:paused" ></stop></linearGradient>
<path d="M 0 0 L 0 628.403 Q 153.6 638.172 307.2 597.1 T 614.4 571.569 T 921.6 470.017 T 1228.8 443.117 T 1536 340.751 L 1536 0 Z" fill="url(#lg-0.8040362555143372)" opacity="0.4" style="opacity:0.4;animation-play-state:paused" ></path>
<path d="M 0 0 L 0 606.309 Q 153.6 582.15 307.2 541.416 T 614.4 513.02 T 921.6 487.849 T 1228.8 302.43 T 1536 246.059 L 1536 0 Z" fill="url(#lg-0.8040362555143372)" opacity="0.4" style="opacity:0.4;animation-play-state:paused" ></path>
<path d="M 0 0 L 0 672.1 Q 153.6 572.595 307.2 539.827 T 614.4 531.885 T 921.6 435.63 T 1228.8 360.677 T 1536 307.221 L 1536 0 Z" fill="url(#lg-0.8040362555143372)" opacity="0.4" style="opacity:0.4;animation-play-state:paused" ></path>
<path d="M 0 0 L 0 597.046 Q 153.6 646.547 307.2 611.204 T 614.4 505.123 T 921.6 398.018 T 1228.8 352.335 T 1536 363.497 L 1536 0 Z" fill="url(#lg-0.8040362555143372)" opacity="0.4" style="opacity:0.4;animation-play-state:paused" ></path>
<path d="M 0 0 L 0 638.621 Q 153.6 628.193 307.2 594.211 T 614.4 500.971 T 921.6 429.695 T 1228.8 353.09 T 1536 340.35 L 1536 0 Z" fill="url(#lg-0.8040362555143372)" opacity="0.4" style="opacity:0.4;animation-play-state:paused" ></path></g></svg>